<svg width="21" height="35" viewBox="0 0 21 35" fill="none" xmlns="http://www.w3.org/2000/svg">
  <path d="M20.754 14.355c0-1.138-.47-2.207-1.284-2.979.17-.69.259-1.422.259-2.147C19.729 4.139 15.588 0 10.5 0 5.411 0 1.271 4.14 1.271 9.229c0 .71.086 1.439.249 2.14a4.105 4.105 0 00-1.274 2.986 4.106 4.106 0 004.102 4.102 4.092 4.092 0 003.076-1.392 4.092 4.092 0 006.152 0 4.092 4.092 0 003.076 1.392c2.385 0 4.102-1.972 4.102-4.102zM6.824 26.957l2.716 7.377a1.026 1.026 0 001.92.001l5.137-13.834a6.178 6.178 0 01-1.7-.27l-8.073 6.726zM10.5 20.508c-1.09 0-2.15-.29-3.076-.826-.91.526-1.95.809-3.021.818l1.658 4.423 5.461-4.55c-.339.057-.674.135-1.022.135z" fill="#fff"/>
</svg>
