<svg xmlns="http://www.w3.org/2000/svg">
  <symbol viewBox="0 0 36 36" id="arrow-previous">
    <title>arrow-previous</title>
    <path d="M35.5 18a17.5 17.5 0 11-35 0 17.5 17.5 0 0135 0zm-20.755-6.457l-5.005 5.25a.857.857 0 00-.175.262.944.944 0 00-.175.28 1.645 1.645 0 000 1.33c.083.215.208.411.367.578l5.25 5.25a1.757 1.757 0 002.486-2.485l-2.275-2.258H25a1.75 1.75 0 000-3.5h-9.905l2.187-2.293a1.752 1.752 0 00-2.537-2.415z" />
  </symbol>
  <symbol viewBox="0 0 36 36" id="arrow-next">
    <title>arrow-next</title>
    <path d="M.5 18a17.5 17.5 0 1035 0 17.5 17.5 0 00-35 0zm20.755-6.457l5.005 5.25a.856.856 0 01.175.262.944.944 0 01.175.28 1.645 1.645 0 010 1.33 1.75 1.75 0 01-.367.578l-5.25 5.25a1.757 1.757 0 01-2.485-2.485l2.274-2.258H11a1.75 1.75 0 010-3.5h9.905l-2.188-2.293a1.752 1.752 0 012.538-2.415z" />
  </symbol>
  <symbol viewBox="0 0 18 19" id="bucket">
    <title>bucket</title>
    <path d="M17.12 3.897L14.29.924A2.929 2.929 0 0012.17 0H5.83c-.795 0-1.558.333-2.12.924L.88 3.897A3.234 3.234 0 000 6.124v9.633c0 .836.316 1.637.879 2.228A2.929 2.929 0 003 18.908h12c.796 0 1.559-.332 2.121-.923A3.234 3.234 0 0018 15.757V6.124c0-.835-.317-1.636-.88-2.227zM9 13.656a3.905 3.905 0 01-2.828-1.23A4.312 4.312 0 015 9.453c0-.279.105-.546.293-.743A.976.976 0 016 8.404c.265 0 .52.11.707.307.188.197.293.464.293.743 0 .557.21 1.092.586 1.486.375.394.884.615 1.414.615.53 0 1.04-.221 1.414-.615.375-.394.586-.929.586-1.486 0-.279.105-.546.293-.743A.976.976 0 0112 8.404c.265 0 .52.11.707.307.188.197.293.464.293.743a4.311 4.311 0 01-1.172 2.971A3.905 3.905 0 019 13.655zM3.41 4.202l1.71-1.796c.192-.192.445-.301.71-.305h6.34c.265.004.518.113.71.305l1.71 1.796H3.41z" />
  </symbol>
  <symbol viewBox="0 0 25 35" id="cocktail">
    <title>cocktail</title>
    <path d="M7.01 14.459a3.98 3.98 0 014.183-.145l2.737-5.496H1.563c-.826 0-1.313.929-.845 1.608l3.887 5.636 2.404-1.603zM20.156 32.949h-6.63v-6.927l5.704-8.272-2.377-1.585a1.926 1.926 0 00-2.143 0 3.97 3.97 0 01-2.477.66l-1.108 2.226a1.025 1.025 0 11-1.836-.915l.986-1.98a1.93 1.93 0 00-2.128.01c-.264.175.789-.527-2.377 1.584l5.705 8.272v6.927H4.844a1.025 1.025 0 000 2.05h15.312a1.025 1.025 0 000-2.05zM23.437 8.818h-4.923l3.654-7.335a1.025 1.025 0 00-1.836-.915c-3.777 7.584-3.207 6.435-6.984 14.02.077-.039.152-.08.224-.129a3.972 3.972 0 014.419 0l2.404 1.603 3.887-5.636a1.026 1.026 0 00-.845-1.608z" />
  </symbol>
  <symbol viewBox="0 0 10 18" id="facebook">
    <title>facebook</title>
    <path d="M6.397 17.997V9.801h2.765l.411-3.209H6.397V4.548c0-.926.258-1.56 1.587-1.56h1.684V.128C8.848.038 8.025-.004 7.201 0 4.757 0 3.079 1.492 3.079 4.231v2.355H.332v3.21h2.753v8.201h3.312z" />
  </symbol>
  <symbol viewBox="0 0 35 35" id="fish">
    <title>fish</title>
    <path d="M34.754 3.292C31.712.249 25.993.249 20.57 3.039c-.197 2.658.8 5.503 2.961 7.664 1.697 1.696 3.816 2.672 5.936 2.922 4.128-4.981 6.298-9.324 5.288-10.333zm-5.733 1.92a1.196 1.196 0 11-1.692-1.69 1.196 1.196 0 011.692 1.69z" />
    <path d="M18.602 4.183c-.4.261-.797.538-1.189.83l-.93-.49a2.101 2.101 0 00-2.457.37l-6.543 6.543A2.104 2.104 0 008 14.778l1.484.778C7.996 19.023 7.19 22.42 6.97 24.57L.51 26.793a.755.755 0 00-.076 1.398l2.817 1.326c.551.26.994.703 1.253 1.254l1.327 2.817a.757.757 0 001.398-.076l2.225-6.47c3.033-.5 8.294-2.818 12.863-6.31l.512 1.58c.092.286.324.5.616.57a.862.862 0 00.81-.23l.548-.548c.42-.421.68-.98.721-1.575l.194-2.777a64.412 64.412 0 002.27-2.407 12.145 12.145 0 01-5.836-3.264c-2.232-2.233-3.426-5.09-3.55-7.898z" />
  </symbol>
  <symbol viewBox="0 0 18 18" id="google">
    <title>google</title>
    <path d="M17.648 7.369H9.18v3.48h4.838a4.13 4.13 0 01-1.795 2.714c-.807.54-1.836.858-3.045.858-2.341 0-4.322-1.582-5.03-3.708a5.45 5.45 0 01-.28-1.708c0-.593.102-1.17.28-1.709.71-2.123 2.691-3.705 5.032-3.705 1.32 0 2.504.454 3.436 1.345l2.579-2.58C13.634.901 11.604.011 9.18.011A8.985 8.985 0 00.192 9.007 8.985 8.985 0 009.18 18c2.428 0 4.463-.806 5.949-2.18 1.7-1.565 2.681-3.872 2.681-6.611 0-.638-.056-1.25-.162-1.84z" />
  </symbol>
  <symbol viewBox="0 0 21 35" id="ice-cream">
    <title>ice-cream</title>
    <path d="M20.754 14.355c0-1.138-.47-2.207-1.284-2.979.17-.69.259-1.422.259-2.147C19.729 4.139 15.588 0 10.5 0 5.411 0 1.271 4.14 1.271 9.229c0 .71.086 1.439.249 2.14a4.105 4.105 0 00-1.274 2.986 4.106 4.106 0 004.102 4.102 4.092 4.092 0 003.076-1.392 4.092 4.092 0 006.152 0 4.092 4.092 0 003.076 1.392c2.385 0 4.102-1.972 4.102-4.102zM6.824 26.957l2.716 7.377a1.026 1.026 0 001.92.001l5.137-13.834a6.178 6.178 0 01-1.7-.27l-8.073 6.726zM10.5 20.508c-1.09 0-2.15-.29-3.076-.826-.91.526-1.95.809-3.021.818l1.658 4.423 5.461-4.55c-.339.057-.674.135-1.022.135z" />
  </symbol>
  <symbol viewBox="0 0 20 20" id="instagram">
    <title>instagram</title>
    <path d="M10 5.193A4.8 4.8 0 005.193 10 4.8 4.8 0 0010 14.807 4.8 4.8 0 0014.807 10 4.8 4.8 0 0010 5.193zm0 7.931A3.13 3.13 0 016.876 10 3.13 3.13 0 0110 6.876 3.13 3.13 0 0113.124 10 3.13 3.13 0 0110 13.124zm5.004-9.248a1.121 1.121 0 100 2.245 1.12 1.12 0 001.038-1.552 1.122 1.122 0 00-1.038-.693zM19.37 10c0-1.294.012-2.576-.06-3.867-.073-1.5-.415-2.831-1.512-3.928-1.1-1.1-2.428-1.44-3.928-1.512C12.576.62 11.294.632 10.003.632 8.708.632 7.426.62 6.134.693c-1.5.073-2.831.415-3.928 1.512C1.107 3.304.768 4.633.695 6.133.623 7.427.635 8.709.635 10s-.012 2.576.06 3.867c.073 1.5.415 2.831 1.512 3.928 1.1 1.1 2.428 1.44 3.928 1.512 1.294.073 2.576.061 3.867.061 1.294 0 2.576.012 3.868-.061 1.5-.073 2.83-.415 3.928-1.512 1.099-1.099 1.439-2.428 1.512-3.928.075-1.291.06-2.573.06-3.867zm-2.062 5.527A2.978 2.978 0 0116.6 16.6c-.33.33-.647.537-1.073.708-1.233.49-4.16.38-5.527.38-1.366 0-4.296.11-5.529-.378a2.98 2.98 0 01-1.073-.708 2.999 2.999 0 01-.708-1.073c-.488-1.235-.377-4.163-.377-5.529 0-1.366-.11-4.296.377-5.529.171-.426.377-.745.708-1.073A3.03 3.03 0 014.47 2.69c1.233-.488 4.163-.377 5.53-.377 1.366 0 4.295-.11 5.528.377.427.17.745.377 1.073.708a3 3 0 01.708 1.073c.488 1.233.378 4.163.378 5.529 0 1.366.11 4.294-.38 5.527z" />
  </symbol>
  <symbol viewBox="0 0 30 19" id="quote">
    <title>quote</title>
    <path opacity=".3" d="M10.888 18.888H.232L8.008.744h6.984l-4.104 18.144zm14.544 0H14.776L22.552.744h6.984l-4.104 18.144z" />
  </symbol>
  <symbol viewBox="0 0 32 32" id="star">
    <title>star</title>
    <path d="M23.413 28c-.213 0-.423-.05-.613-.147l-6.8-3.56-6.8 3.56a1.334 1.334 0 01-1.933-1.413L8.6 18.933 3.107 13.6a1.333 1.333 0 01-.334-1.333 1.333 1.333 0 011.08-.907l7.6-1.107 3.347-6.84a1.334 1.334 0 012.4 0l3.387 6.827 7.6 1.107a1.333 1.333 0 011.08.906 1.334 1.334 0 01-.334 1.334L23.44 18.92l1.333 7.507a1.333 1.333 0 01-.533 1.333c-.241.17-.532.253-.827.24z" />
  </symbol>
  <symbol viewBox="0 0 20 16" id="twitter">
    <title>twitter</title>
    <path d="M19.75 1.96a8.014 8.014 0 01-2.301.619A3.987 3.987 0 0019.206.376a7.89 7.89 0 01-2.535.965A3.988 3.988 0 0013.75.078a3.996 3.996 0 00-3.997 3.999c0 .309.038.618.098.916A11.358 11.358 0 011.612.809a3.968 3.968 0 00-.544 2.018c0 1.388.706 2.611 1.781 3.33a4.031 4.031 0 01-1.807-.508v.05a3.997 3.997 0 003.204 3.923c-.343.09-.697.135-1.052.136-.26 0-.506-.026-.755-.061a4.004 4.004 0 003.736 2.773 8.01 8.01 0 01-4.962 1.708c-.335 0-.644-.012-.965-.05a11.317 11.317 0 006.138 1.794c7.35 0 11.372-6.09 11.372-11.374 0-.174 0-.347-.012-.52A8.606 8.606 0 0019.75 1.96z" />
  </symbol>
  <symbol viewBox="0 0 41 20" id="watermelon">
    <title>watermelon</title>
    <path d="M39.609 0c-.773 0-1.402.62-1.49 1.395-1.012 8.948-8.544 15.834-17.619 15.824-9.062-.02-16.577-6.892-17.614-15.826C2.796.618 2.166 0 1.394 0 .577 0-.081.686.008 1.505 1.143 11.955 9.92 20.009 20.5 20c10.58.002 19.352-8.05 20.492-18.497C41.08.685 40.424 0 39.609 0z" />
    <path d="M24.258 4.056c-1.095-1.086-2.945-.303-2.945 1.245v8.46c0 .998.832 1.802 1.808 1.64a15.984 15.984 0 006.992-3c.788-.594.797-1.747.096-2.442l-5.951-5.903zM6.206 0c-.983 0-1.78.829-1.632 1.81a15.837 15.837 0 002.682 6.736c.571.821 1.73.86 2.438.156l5.758-5.71C16.557 1.895 15.787 0 14.238 0H6.206zM10.8 9.951c-.7.694-.693 1.844.092 2.439a15.907 15.907 0 006.988 3.01c.977.163 1.808-.641 1.808-1.64V5.302c0-1.548-1.85-2.33-2.945-1.245L10.8 9.951zM26.763 0c-1.55 0-2.319 1.896-1.214 2.991l5.774 5.727c.707.701 1.862.665 2.43-.156a16.104 16.104 0 002.675-6.758C36.576.825 35.782 0 34.8 0h-8.037z" />
  </symbol>
  <symbol viewBox="0 0 110 110" id="card-square">
    <title>card-square</title>
    <path fill="#E5E5E5" d="M0 0h110v110H0z"/>
    <path fill="#fff" d="M-130-1011h1440V542H-130z"/>
    <rect width="366" height="422" x="-29.5" y="-29.5" fill="#fff" stroke="#DFE1E6" rx="49.5"/>
    <rect width="110" height="110" fill="#FE724C" opacity=".5" rx="25"/>
    <circle cx="37.5" cy="37.5" r="22.5" fill="#FE724C"/>
    <path fill="#FE724C" d="M89.5 95H42.716c-4.542 0-6.731-5.567-3.406-8.66l46.784-43.52c3.199-2.976 8.406-.708 8.406 3.66V90a5 5 0 01-5 5z" opacity=".7"/>
  </symbol>
</svg>