<svg width="20" height="16" viewBox="0 0 20 16" fill="none" xmlns="http://www.w3.org/2000/svg">
  <path d="M19.75 1.96a8.014 8.014 0 01-2.301.619A3.987 3.987 0 0019.206.376a7.89 7.89 0 01-2.535.965A3.988 3.988 0 0013.75.078a3.996 3.996 0 00-3.997 3.999c0 .309.038.618.098.916A11.358 11.358 0 011.612.809a3.968 3.968 0 00-.544 2.018c0 1.388.706 2.611 1.781 3.33a4.031 4.031 0 01-1.807-.508v.05a3.997 3.997 0 003.204 3.923c-.343.09-.697.135-1.052.136-.26 0-.506-.026-.755-.061a4.004 4.004 0 003.736 2.773 8.01 8.01 0 01-4.962 1.708c-.335 0-.644-.012-.965-.05a11.317 11.317 0 006.138 1.794c7.35 0 11.372-6.09 11.372-11.374 0-.174 0-.347-.012-.52A8.606 8.606 0 0019.75 1.96z" fill="#59423C"/>
</svg>
