<svg width="18" height="19" viewBox="0 0 18 19" fill="none" xmlns="http://www.w3.org/2000/svg">
  <path d="M17.12 3.897L14.29.924A2.929 2.929 0 0012.17 0H5.83c-.795 0-1.558.333-2.12.924L.88 3.897A3.234 3.234 0 000 6.124v9.633c0 .836.316 1.637.879 2.228A2.929 2.929 0 003 18.908h12c.796 0 1.559-.332 2.121-.923A3.234 3.234 0 0018 15.757V6.124c0-.835-.317-1.636-.88-2.227zM9 13.656a3.905 3.905 0 01-2.828-1.23A4.312 4.312 0 015 9.453c0-.279.105-.546.293-.743A.976.976 0 016 8.404c.265 0 .52.11.707.307.188.197.293.464.293.743 0 .557.21 1.092.586 1.486.375.394.884.615 1.414.615.53 0 1.04-.221 1.414-.615.375-.394.586-.929.586-1.486 0-.279.105-.546.293-.743A.976.976 0 0112 8.404c.265 0 .52.11.707.307.188.197.293.464.293.743a4.311 4.311 0 01-1.172 2.971A3.905 3.905 0 019 13.655zM3.41 4.202l1.71-1.796c.192-.192.445-.301.71-.305h6.34c.265.004.518.113.71.305l1.71 1.796H3.41z" fill="#fff"/>
</svg>
