<svg width="25" height="35" viewBox="0 0 25 35" fill="none" xmlns="http://www.w3.org/2000/svg">
  <path d="M7.01 14.459a3.98 3.98 0 014.183-.145l2.737-5.496H1.563c-.826 0-1.313.929-.845 1.608l3.887 5.636 2.404-1.603zM20.156 32.949h-6.63v-6.927l5.704-8.272-2.377-1.585a1.926 1.926 0 00-2.143 0 3.97 3.97 0 01-2.477.66l-1.108 2.226a1.025 1.025 0 11-1.836-.915l.986-1.98a1.93 1.93 0 00-2.128.01c-.264.175.789-.527-2.377 1.584l5.705 8.272v6.927H4.844a1.025 1.025 0 000 2.05h15.312a1.025 1.025 0 000-2.05zM23.437 8.818h-4.923l3.654-7.335a1.025 1.025 0 00-1.836-.915c-3.777 7.584-3.207 6.435-6.984 14.02.077-.039.152-.08.224-.129a3.972 3.972 0 014.419 0l2.404 1.603 3.887-5.636a1.026 1.026 0 00-.845-1.608z" fill="#fff"/>
</svg>
