<svg width="35" height="35" viewBox="0 0 35 35" fill="none" xmlns="http://www.w3.org/2000/svg">
  <path d="M34.754 3.292C31.712.249 25.993.249 20.57 3.039c-.197 2.658.8 5.503 2.961 7.664 1.697 1.696 3.816 2.672 5.936 2.922 4.128-4.981 6.298-9.324 5.288-10.333zm-5.733 1.92a1.196 1.196 0 11-1.692-1.69 1.196 1.196 0 011.692 1.69z" fill="#fff"/>
  <path d="M18.602 4.183c-.4.261-.797.538-1.189.83l-.93-.49a2.101 2.101 0 00-2.457.37l-6.543 6.543A2.104 2.104 0 008 14.778l1.484.778C7.996 19.023 7.19 22.42 6.97 24.57L.51 26.793a.755.755 0 00-.076 1.398l2.817 1.326c.551.26.994.703 1.253 1.254l1.327 2.817a.757.757 0 001.398-.076l2.225-6.47c3.033-.5 8.294-2.818 12.863-6.31l.512 1.58c.092.286.324.5.616.57a.862.862 0 00.81-.23l.548-.548c.42-.421.68-.98.721-1.575l.194-2.777a64.412 64.412 0 002.27-2.407 12.145 12.145 0 01-5.836-3.264c-2.232-2.233-3.426-5.09-3.55-7.898z" fill="#fff"/>
</svg>
