<svg width="20" height="20" viewBox="0 0 20 20" fill="none" xmlns="http://www.w3.org/2000/svg">
  <path d="M10 5.193A4.8 4.8 0 005.193 10 4.8 4.8 0 0010 14.807 4.8 4.8 0 0014.807 10 4.8 4.8 0 0010 5.193zm0 7.931A3.13 3.13 0 016.876 10 3.13 3.13 0 0110 6.876 3.13 3.13 0 0113.124 10 3.13 3.13 0 0110 13.124zm5.004-9.248a1.121 1.121 0 100 2.245 1.12 1.12 0 001.038-1.552 1.122 1.122 0 00-1.038-.693zM19.37 10c0-1.294.012-2.576-.06-3.867-.073-1.5-.415-2.831-1.512-3.928-1.1-1.1-2.428-1.44-3.928-1.512C12.576.62 11.294.632 10.003.632 8.708.632 7.426.62 6.134.693c-1.5.073-2.831.415-3.928 1.512C1.107 3.304.768 4.633.695 6.133.623 7.427.635 8.709.635 10s-.012 2.576.06 3.867c.073 1.5.415 2.831 1.512 3.928 1.1 1.1 2.428 1.44 3.928 1.512 1.294.073 2.576.061 3.867.061 1.294 0 2.576.012 3.868-.061 1.5-.073 2.83-.415 3.928-1.512 1.099-1.099 1.439-2.428 1.512-3.928.075-1.291.06-2.573.06-3.867zm-2.062 5.527A2.978 2.978 0 0116.6 16.6c-.33.33-.647.537-1.073.708-1.233.49-4.16.38-5.527.38-1.366 0-4.296.11-5.529-.378a2.98 2.98 0 01-1.073-.708 2.999 2.999 0 01-.708-1.073c-.488-1.235-.377-4.163-.377-5.529 0-1.366-.11-4.296.377-5.529.171-.426.377-.745.708-1.073A3.03 3.03 0 014.47 2.69c1.233-.488 4.163-.377 5.53-.377 1.366 0 4.295-.11 5.528.377.427.17.745.377 1.073.708a3 3 0 01.708 1.073c.488 1.233.378 4.163.378 5.529 0 1.366.11 4.294-.38 5.527z" fill="#59423C"/>
</svg>
