<svg width="41" height="20" viewBox="0 0 41 20" fill="none" xmlns="http://www.w3.org/2000/svg">
  <path d="M39.609 0c-.773 0-1.402.62-1.49 1.395-1.012 8.948-8.544 15.834-17.619 15.824-9.062-.02-16.577-6.892-17.614-15.826C2.796.618 2.166 0 1.394 0 .577 0-.081.686.008 1.505 1.143 11.955 9.92 20.009 20.5 20c10.58.002 19.352-8.05 20.492-18.497C41.08.685 40.424 0 39.609 0z" fill="#fff"/>
  <path d="M24.258 4.056c-1.095-1.086-2.945-.303-2.945 1.245v8.46c0 .998.832 1.802 1.808 1.64a15.984 15.984 0 006.992-3c.788-.594.797-1.747.096-2.442l-5.951-5.903zM6.206 0c-.983 0-1.78.829-1.632 1.81a15.837 15.837 0 002.682 6.736c.571.821 1.73.86 2.438.156l5.758-5.71C16.557 1.895 15.787 0 14.238 0H6.206zM10.8 9.951c-.7.694-.693 1.844.092 2.439a15.907 15.907 0 006.988 3.01c.977.163 1.808-.641 1.808-1.64V5.302c0-1.548-1.85-2.33-2.945-1.245L10.8 9.951zM26.763 0c-1.55 0-2.319 1.896-1.214 2.991l5.774 5.727c.707.701 1.862.665 2.43-.156a16.104 16.104 0 002.675-6.758C36.576.825 35.782 0 34.8 0h-8.037z" fill="#fff"/>
</svg>
